<?xml version="1.0" encoding="utf-8"?>
<!-- Generator: Adobe Illustrator 26.0.2, SVG Export Plug-In . SVG Version: 6.00 Build 0)  -->
<svg version="1.1" id="Layer_1" xmlns="http://www.w3.org/2000/svg" xmlns:xlink="http://www.w3.org/1999/xlink" x="0px" y="0px"
	 width="5632px" height="512px" viewBox="0 0 5632 512" enable-background="new 0 0 5632 512" xml:space="preserve">
<g id="Logo_x2F_Desktop">
	<g id="BV-Single-line-logo-01-2" transform="translate(-0.000000, 0.500000)">
		<path id="Shape" fill="#000000" d="M648.4,472.1c-99.8,0-159.9-97-159.9-216.6S548.5,39,648.4,39s159.9,96.9,159.9,216.6
			S748.2,472.1,648.4,472.1 M648.4,9.8c-138.4,0-250.7,110-250.7,245.7s112.2,245.7,250.7,245.7s250.7-110,250.7-245.7
			S786.8,9.8,648.4,9.8"/>
		<path id="Shape_00000071550822049420754970000016231984909121928092_" fill="#000000" d="M132.9,461.7H95.1V236.9h16.3
			c55.5,0,148.7,15.2,148.7,117.3c0,68.4-46.3,107.3-127.1,107.3 M95.1,49.9h41.7c53.6,0,83.1,27.3,83.1,76.8
			c0,53.8-29.8,81-88.7,81H95.1V49.9z M197.5,220.3c69-20.6,102.6-52.2,102.6-96c-0.6-34.6-20.4-66-51.4-81.4
			C221.4,28.3,176.5,21,115.5,21H0v9c18.9,9.1,18.3,39.5,18.3,61v329.7c0,21.5,0.6,51.9-18.3,61v9h142.6c28.9,0,84.7-3.4,131.5-26.3
			c46.7-22.9,71-58.2,71-104.8c0-86.8-74.5-128.3-147.7-139"/>
		<path id="Path" fill="#000000" d="M915.9,72.2h8.8c15.5-22.9,42.2-22.9,63.6-22.9h38.5v371.1l0,0c0,21.5,0.6,51.9-18.3,61v9h113
			v-9c-18.9-9.1-18.3-39.5-18.3-61l0,0V49.3h38.5c21.3,0,48.1,0,63.5,23h8.8V20.7H915.9V72.2z"/>
		<path id="Path_00000050636198397527817660000012301669243264729520_" fill="#000000" d="M1291.1,72.2h8.8
			c15.4-22.9,42.2-22.9,63.5-22.9h38.5v371.1l0,0c0,21.5,0.6,51.9-18.4,61v9h113.3v-9c-18.9-9.1-18.3-39.5-18.3-61l0,0V49.3h38.5
			c21.4,0,48.1,0,63.5,23h8.9V20.7h-298.3V72.2z"/>
		<path id="Path_00000124121933593485164610000008183825643187024779_" fill="#000000" d="M4898.7,72.2h8.8
			c15.4-22.9,42.2-22.9,63.5-22.9h38.5v371.1l0,0c0,21.5,0.5,51.9-18.4,61v9h113v-9c-18.9-9.1-18.3-39.5-18.3-61l0,0V49.3h38.5
			c21.3,0,48.1,0,63.5,23h8.9V20.7h-298V72.2z"/>
		<path id="Path_00000035513116576387485470000002776607843362900400_" fill="#000000" d="M1913.4,461.7h-147.9V263.2h107.3
			c21.7,0,52.6-0.3,61.1,18.3h8.9v-65.1h-8.9c-8.4,18.5-39.5,18.2-61.1,18.2h-107.3V49.3h128.2c21.4,0,48.3,0,63.6,23h8.8V20.7
			h-300.5v8.8c23.9,15.5,23.7,43.5,23.7,65.5v321.1c0,22,0,50-23.7,65.4v8.9h319.9v-51.3h-8.8c-14.6,22.9-42.1,23-63.5,23"/>
		<path id="Path_00000103233854607404370440000014613968118656487833_" fill="#000000" d="M3923.1,461.7h-147.9V263.2h107.3
			c21.6,0,52.6-0.3,61,18.3h9v-65.1h-9c-8.4,18.5-39.5,18.2-61,18.2h-107.3V49.3h128.2c21.3,0,48.3,0,63.5,23h9.1V20.7h-300.5v8.8
			c23.9,15.5,23.7,43.5,23.7,65.5v321.1c0,22,0,50-23.7,65.4v8.9h319.9v-51.3h-8.8C3972,461.7,3944.4,461.7,3923.1,461.7"/>
		<path id="Path_00000019666687882354836710000008017777808333632679_" fill="#000000" d="M4761.9,461.7H4614V263.2h107.3
			c21.6,0,52.6-0.3,61,18.3h9v-65.1h-9c-8.4,18.5-39.5,18.2-61,18.2H4614V49.3h128.2c21.3,0,48.2,0,63.5,23h8.8V20.7h-300.3v8.8
			c24,15.5,23.8,43.5,23.8,65.5v321.1c0,22,0,50-23.8,65.4v8.9h320v-51.3h-8.8C4810.8,461.7,4783.2,461.7,4761.9,461.7"/>
		<path id="Shape_00000066488849356176122000000018056128882009393841_" fill="#000000" d="M2654.2,309.2l73.4-191.3l72.9,191.3
			H2654.2z M2928.7,431.8L2770.6,22.2l-0.5-1.3h-35.6L2577.1,431c-5.6,16.4-21.4,45.2-39.8,50.1v9.4h80.7v-9.2
			c-16.6-8-20.5-21.6-13.7-40l39.5-103.7H2812l39,103.7c6.8,18.4,2.7,32.4-13.7,40.1v9.2h126.3v-9.3c-16.9-6.3-29.9-38-34.6-49.5"/>
		<path id="Path_00000008145681625167815830000010627546186304872382_" fill="#000000" d="M2407.7,279.7c0,0,31,4.5,31,48.2
			c0,85.8-77.3,143.4-149.4,143.4c-55,0-99.7-23.4-129.1-67.8c-25.3-37.8-36.4-90.4-36.4-148.2c0-61.4,11.3-113.7,37.4-151.2
			c30.4-43.3,75.6-65.3,134.4-65.3c69.2,0,119.6,25.9,155.3,76.8c3.3,4.7,6.4,9.6,9.2,14.7l8.7-1.5V21.1h-8.7
			c-9.8,9.3-32.6,9.6-48.3,7.9c-13-1.6-25.9-4.3-38.6-7.9c-28.1-7.6-57.1-11.4-86.1-11.3c-54.4-0.8-107.5,16.3-151.1,48.7
			c-61.7,46.7-101.7,125.7-101.7,201.2c-0.5,66.2,27,129.4,75.9,174c49.1,44.2,113.1,68.3,179.2,67.5c89.1,0,161.8-39.9,204.9-112.4
			c22.6-37.8,28.2-66.4,32-117.9h-118.6L2407.7,279.7z"/>
		<path id="Shape_00000080169044423743134220000005675061539072498621_" fill="#000000" d="M5318.4,309.2l73.1-191.2l73.4,191.2
			H5318.4z M5593,431.8L5434.8,22.2l-0.5-1.3h-35.6L5241.3,431c-5.6,16.4-21.4,45.2-39.8,50.1v9.4h80.7v-9.2
			c-16.6-8-20.5-21.6-13.7-40l39.5-103.7h168.2l39,103.7c6.8,18.4,2.7,32.4-13.7,40.1v9.2h126.3v-9.3c-16.9-6.3-29.9-38-34.6-49.5"
			/>
		<path id="Path_00000013897195999810047790000016022809821596183213_" fill="#000000" d="M3528,29.9c19,9.1,18.5,25.2,14.9,36.7
			l-111.5,319.9l-105-310.6c-3.6-9.9-10.1-34.9,13.3-45.9v-9.2h-126.3V30c15.4,6.2,27.5,30.6,33.9,49.4l140,411h39.2l142.8-410.2
			c6-17.5,21.9-45.2,39.5-50.1v-9.4H3528V29.9z"/>
		<path id="Path_00000090254898923645484770000008575859891865753236_" fill="#000000" d="M4365.1,29.5c15,9.6,14.9,38.8,14.9,48.1
			v256.5L4160.6,21.6l-0.6-0.8h-93.1v8.8c23.2,14.9,23,42.2,23,63.5v340.4c0,9.3,0,38.5-14.9,48.1v8.8h60.3v-8.8
			c-15-9.6-14.9-38.8-14.9-48.1V105.1l270.2,385.3h19.8V77.6c0-9.3,0-38.5,14.9-48.1v-8.8h-60.3V29.5z"/>
	</g>
</g>
</svg>
